<svg width="45" height="42" version="1.1" xmlns="http://www.w3.org/2000/svg" xmlns:xlink="http://www.w3.org/1999/xlink" xml:space="preserve" xmlns:serif="http://www.serif.com/" style="fill-rule:evenodd;clip-rule:evenodd;stroke-linejoin:round;stroke-miterlimit:2;"><rect id="backgroundrect" width="100%" height="100%" x="0" y="0" fill="none" stroke="none"/><g class="currentLayer" style=""><title>Layer 1</title><g id="svg_1" class=""><path d="M5.715000152587891,42.012001037597656 l-1.8930000066757202,0 l-1.722000002861023,-2.2660000324249268 l-0.5559999942779541,0 l0,2.2660000324249268 l-1.5440000295639038,0 l0,-6.179999828338623 l2.4860000610351562,0 c0.34299999475479126,0 0.6420000195503235,0.02199999988079071 0.8960000276565552,0.06499999761581421 c0.2549999952316284,0.041999999433755875 0.49000000953674316,0.13199999928474426 0.7059999704360962,0.2669999897480011 c0.22100000083446503,0.14100000262260437 0.3970000147819519,0.32100000977516174 0.5270000100135803,0.5379999876022339 c0.12999999523162842,0.21699999272823334 0.19499999284744263,0.49300000071525574 0.19499999284744263,0.828000009059906 c0,0.4729999899864197 -0.10599999874830246,0.8569999933242798 -0.3190000057220459,1.1510000228881836 c-0.21299999952316284,0.29499998688697815 -0.49799999594688416,0.5299999713897705 -0.8550000190734863,0.7039999961853027 l2.0789999961853027,2.627000093460083 zm-2.499000072479248,-4.2870001792907715 c0,-0.1550000011920929 -0.028999999165534973,-0.289000004529953 -0.08900000154972076,-0.4009999930858612 c-0.05900000035762787,-0.1120000034570694 -0.15800000727176666,-0.1979999989271164 -0.296999990940094,-0.2590000033378601 c-0.09600000083446503,-0.041999999433755875 -0.20399999618530273,-0.06800000369548798 -0.3230000138282776,-0.07900000363588333 c-0.11900000274181366,-0.010999999940395355 -0.2669999897480011,-0.017000000923871994 -0.4440000057220459,-0.017000000923871994 l-0.5189999938011169,0 l0,1.6649999618530273 l0.4440000057220459,0 c0.2160000056028366,0 0.39899998903274536,-0.013000000268220901 0.550000011920929,-0.03999999910593033 c0.1509999930858612,-0.026000000536441803 0.27900001406669617,-0.0820000022649765 0.3840000033378601,-0.1679999977350235 c0.0989999994635582,-0.07699999958276749 0.17299999296665192,-0.17000000178813934 0.22200000286102295,-0.27799999713897705 c0.04800000041723251,-0.1080000028014183 0.07199999690055847,-0.24899999797344208 0.07199999690055847,-0.4230000078678131 z" style="fill:#504e53;fill-rule:nonzero;" id="svg_2"/><path d="M7.022003173828125,42.012001037597656 l0,-6.179999828338623 l4.178999900817871,0 l0,1.1790000200271606 l-2.634999990463257,0 l0,1.0829999446868896 l2.427000045776367,0 l0,1.1790000200271606 l-2.427000045776367,0 l0,1.559999942779541 l2.634999990463257,0 l0,1.1790000200271606 l-4.178999900817871,0 z" style="fill:#504e53;fill-rule:nonzero;" id="svg_3"/><path d="M17.856998443603516,37.78300094604492 c0,0.2879999876022339 -0.04500000178813934,0.5619999766349792 -0.13699999451637268,0.8220000267028809 c-0.09099999815225601,0.25999999046325684 -0.22200000286102295,0.47699999809265137 -0.39399999380111694,0.6510000228881836 c-0.10499999672174454,0.1080000028014183 -0.22100000083446503,0.20800000429153442 -0.34599998593330383,0.29899999499320984 c-0.12600000202655792,0.09099999815225601 -0.26499998569488525,0.16899999976158142 -0.4180000126361847,0.2329999953508377 c-0.15199999511241913,0.06300000101327896 -0.31700000166893005,0.11299999803304672 -0.4950000047683716,0.14900000393390656 c-0.17900000512599945,0.035999998450279236 -0.3790000081062317,0.05400000140070915 -0.6000000238418579,0.05400000140070915 l-0.8140000104904175,0 l0,2.0209999084472656 l-1.5520000457763672,0 l0,-6.179999828338623 l2.3989999294281006,0 c0.3569999933242798,0 0.6650000214576721,0.032999999821186066 0.9229999780654907,0.09799999743700027 c0.2590000033378601,0.06499999761581421 0.49399998784065247,0.1679999977350235 0.7039999961853027,0.3089999854564667 c0.23199999332427979,0.1550000011920929 0.41200000047683716,0.3619999885559082 0.5389999747276306,0.6200000047683716 c0.12800000607967377,0.2590000033378601 0.19099999964237213,0.5669999718666077 0.19099999964237213,0.9240000247955322 zm-1.593000054359436,0.03700000047683716 c0,-0.17399999499320984 -0.041999999433755875,-0.3240000009536743 -0.125,-0.44999998807907104 c-0.08299999684095383,-0.12600000202655792 -0.18199999630451202,-0.21199999749660492 -0.29899999499320984,-0.2590000033378601 c-0.1459999978542328,-0.06400000303983688 -0.28700000047683716,-0.10100000351667404 -0.42100000381469727,-0.10999999940395355 c-0.1340000033378601,-0.009999999776482582 -0.3160000145435333,-0.014999999664723873 -0.5460000038146973,-0.014999999664723873 l-0.2199999988079071,0 l0,1.8509999513626099 l0.1080000028014183,0 c0.1469999998807907,0 0.2849999964237213,-0.0010000000474974513 0.41499999165534973,-0.004000000189989805 c0.12999999523162842,-0.003000000026077032 0.24400000274181366,-0.012000000104308128 0.3409999907016754,-0.028999999165534973 c0.08299999684095383,-0.014000000432133675 0.17000000178813934,-0.04100000113248825 0.2630000114440918,-0.08100000023841858 c0.09300000220537186,-0.03999999910593033 0.164000004529953,-0.08500000089406967 0.21400000154972076,-0.13500000536441803 c0.10499999672174454,-0.10199999809265137 0.17599999904632568,-0.20900000631809235 0.21400000154972076,-0.3190000057220459 c0.03700000047683716,-0.11100000143051147 0.0560000017285347,-0.26100000739097595 0.0560000017285347,-0.4490000009536743 z" style="fill:#504e53;fill-rule:nonzero;" id="svg_4"/><path d="M25.16500473022461,38.92399978637695 c0,0.9990000128746033 -0.2669999897480011,1.784999966621399 -0.8009999990463257,2.3580000400543213 c-0.5339999794960022,0.5720000267028809 -1.2649999856948853,0.859000027179718 -2.194999933242798,0.859000027179718 c-0.9330000281333923,0 -1.6640000343322754,-0.28999999165534973 -2.196000099182129,-0.8700000047683716 c-0.531000018119812,-0.5789999961853027 -0.796999990940094,-1.3619999885559082 -0.796999990940094,-2.3469998836517334 c0,-0.9929999709129333 0.26600000262260437,-1.777999997138977 0.796999990940094,-2.3550000190734863 c0.5320000052452087,-0.5770000219345093 1.2630000114440918,-0.8650000095367432 2.196000099182129,-0.8650000095367432 c0.9300000071525574,0 1.6610000133514404,0.28700000047683716 2.194999933242798,0.8610000014305115 c0.5339999794960022,0.5740000009536743 0.8009999990463257,1.3600000143051147 0.8009999990463257,2.3589999675750732 zm-1.6019999980926514,-0.004000000189989805 c0,-0.36800000071525574 -0.03799999877810478,-0.6809999942779541 -0.11400000005960464,-0.9399999976158142 c-0.07599999755620956,-0.2590000033378601 -0.17800000309944153,-0.47099998593330383 -0.3050000071525574,-0.6370000243186951 c-0.13300000131130219,-0.16899999976158142 -0.28299999237060547,-0.28999999165534973 -0.44999998807907104,-0.3630000054836273 c-0.1679999977350235,-0.07400000095367432 -0.3409999907016754,-0.10999999940395355 -0.5210000276565552,-0.10999999940395355 c-0.19099999964237213,0 -0.36399999260902405,0.03400000184774399 -0.5189999938011169,0.10199999809265137 c-0.1550000011920929,0.06700000166893005 -0.30399999022483826,0.18799999356269836 -0.4480000138282776,0.3630000054836273 c-0.12700000405311584,0.1599999964237213 -0.23000000417232513,0.37299999594688416 -0.3089999854564667,0.6389999985694885 c-0.07900000363588333,0.26499998569488525 -0.11900000274181366,0.5820000171661377 -0.11900000274181366,0.949999988079071 c0,0.3790000081062317 0.03799999877810478,0.6940000057220459 0.11299999803304672,0.9440000057220459 c0.07400000095367432,0.25099998712539673 0.1770000010728836,0.46000000834465027 0.3070000112056732,0.6290000081062317 c0.13199999928474426,0.1720000058412552 0.28299999237060547,0.2939999997615814 0.4519999921321869,0.36800000071525574 c0.16899999976158142,0.0729999989271164 0.34299999475479126,0.10999999940395355 0.5230000019073486,0.10999999940395355 c0.18299999833106995,0 0.36000001430511475,-0.03999999910593033 0.531000018119812,-0.11900000274181366 c0.1720000058412552,-0.07900000363588333 0.3199999928474426,-0.20100000500679016 0.4440000057220459,-0.367000013589859 c0.13300000131130219,-0.18000000715255737 0.23600000143051147,-0.3889999985694885 0.3070000112056732,-0.6290000081062317 c0.07199999690055847,-0.23899999260902405 0.1080000028014183,-0.5529999732971191 0.1080000028014183,-0.9399999976158142 z" style="fill:#504e53;fill-rule:nonzero;" id="svg_5"/><path d="M32.64799880981445,42.012001037597656 l-1.8930000066757202,0 l-1.722000002861023,-2.2660000324249268 l-0.5559999942779541,0 l0,2.2660000324249268 l-1.5440000295639038,0 l0,-6.179999828338623 l2.4860000610351562,0 c0.34299999475479126,0 0.6420000195503235,0.02199999988079071 0.8960000276565552,0.06499999761581421 c0.2549999952316284,0.041999999433755875 0.49000000953674316,0.13199999928474426 0.7059999704360962,0.2669999897480011 c0.22100000083446503,0.14100000262260437 0.3970000147819519,0.32100000977516174 0.5270000100135803,0.5379999876022339 c0.12999999523162842,0.21699999272823334 0.19499999284744263,0.49300000071525574 0.19499999284744263,0.828000009059906 c0,0.4729999899864197 -0.10700000077486038,0.8569999933242798 -0.3199999928474426,1.1510000228881836 c-0.21299999952316284,0.29499998688697815 -0.49799999594688416,0.5299999713897705 -0.8550000190734863,0.7039999961853027 l2.0799999237060547,2.627000093460083 zm-2.499000072479248,-4.2870001792907715 c0,-0.1550000011920929 -0.029999999329447746,-0.289000004529953 -0.08900000154972076,-0.4009999930858612 c-0.05999999865889549,-0.1120000034570694 -0.15800000727176666,-0.1979999989271164 -0.296999990940094,-0.2590000033378601 c-0.09700000286102295,-0.041999999433755875 -0.20499999821186066,-0.06800000369548798 -0.3240000009536743,-0.07900000363588333 c-0.11800000071525574,-0.010999999940395355 -0.2669999897480011,-0.017000000923871994 -0.4440000057220459,-0.017000000923871994 l-0.5180000066757202,0 l0,1.6649999618530273 l0.4440000057220459,0 c0.2160000056028366,0 0.39899998903274536,-0.013000000268220901 0.550000011920929,-0.03999999910593033 c0.15000000596046448,-0.026000000536441803 0.27799999713897705,-0.0820000022649765 0.3840000033378601,-0.1679999977350235 c0.0989999994635582,-0.07699999958276749 0.17299999296665192,-0.17000000178813934 0.22200000286102295,-0.27799999713897705 c0.04800000041723251,-0.1080000028014183 0.07199999690055847,-0.24899999797344208 0.07199999690055847,-0.4230000078678131 z" style="fill:#504e53;fill-rule:nonzero;" id="svg_6"/><path d="M35.1410026550293,42.012001037597656 l0,-5.000999927520752 l-1.8259999752044678,0 l0,-1.1790000200271606 l5.204999923706055,0 l0,1.1790000200271606 l-1.8259999752044678,0 l0,5.000999927520752 l-1.5529999732971191,0 z" style="fill:#504e53;fill-rule:nonzero;" id="svg_7"/><path d="M41.91800308227539,42.124000549316406 c-0.4729999899864197,0 -0.8889999985694885,-0.04500000178813934 -1.246999979019165,-0.13699999451637268 c-0.3580000102519989,-0.09099999815225601 -0.6909999847412109,-0.20499999821186066 -0.9980000257492065,-0.3400000035762787 l0,-1.468999981880188 l0.14100000262260437,0 c0.3100000023841858,0.2630000114440918 0.6510000228881836,0.4650000035762787 1.024999976158142,0.6060000061988831 c0.37299999594688416,0.14100000262260437 0.7360000014305115,0.210999995470047 1.0870000123977661,0.210999995470047 c0.08900000154972076,0 0.20600000023841858,-0.008999999612569809 0.35100001096725464,-0.028999999165534973 c0.14499999582767487,-0.01899999938905239 0.2619999945163727,-0.05000000074505806 0.35100001096725464,-0.09099999815225601 c0.1080000028014183,-0.04699999839067459 0.19900000095367432,-0.11299999803304672 0.27399998903274536,-0.19699999690055847 c0.07400000095367432,-0.08500000089406967 0.1120000034570694,-0.19599999487400055 0.1120000034570694,-0.33399999141693115 c0,-0.1550000011920929 -0.061000000685453415,-0.2809999883174896 -0.18299999833106995,-0.3779999911785126 c-0.12200000137090683,-0.09700000286102295 -0.2669999897480011,-0.16699999570846558 -0.4359999895095825,-0.21199999749660492 c-0.20999999344348907,-0.054999999701976776 -0.4350000023841858,-0.1080000028014183 -0.6740000247955322,-0.15700000524520874 c-0.23899999260902405,-0.05000000074505806 -0.46299999952316284,-0.11100000143051147 -0.6700000166893005,-0.18299999833106995 c-0.4790000021457672,-0.16899999976158142 -0.8220000267028809,-0.3959999978542328 -1.0299999713897705,-0.6809999942779541 c-0.2070000022649765,-0.2849999964237213 -0.3109999895095825,-0.6420000195503235 -0.3109999895095825,-1.0700000524520874 c0,-0.5789999961853027 0.24500000476837158,-1.0470000505447388 0.7350000143051147,-1.4049999713897705 c0.48899999260902405,-0.35899999737739563 1.1009999513626099,-0.5379999876022339 1.8339999914169312,-0.5379999876022339 c0.36800000071525574,0 0.734000027179718,0.03799999877810478 1.0980000495910645,0.1120000034570694 c0.36399999260902405,0.07500000298023224 0.6899999976158142,0.17599999904632568 0.9769999980926514,0.30300000309944153 l0,1.4110000133514404 l-0.13699999451637268,0 c-0.2290000021457672,-0.19599999487400055 -0.5090000033378601,-0.3619999885559082 -0.8399999737739563,-0.49799999594688416 c-0.3310000002384186,-0.13500000536441803 -0.6700000166893005,-0.2029999941587448 -1.0190000534057617,-0.2029999941587448 c-0.13600000739097595,0 -0.25699999928474426,0.009999999776482582 -0.36500000953674316,0.028999999165534973 c-0.1080000028014183,0.01899999938905239 -0.22200000286102295,0.05700000002980232 -0.3409999907016754,0.1120000034570694 c-0.09600000083446503,0.04399999976158142 -0.18000000715255737,0.10999999940395355 -0.25099998712539673,0.19699999690055847 c-0.07000000029802322,0.08699999749660492 -0.10599999874830246,0.1850000023841858 -0.10599999874830246,0.2930000126361847 c0,0.15700000524520874 0.05700000002980232,0.28299999237060547 0.16899999976158142,0.375 c0.1120000034570694,0.09300000220537186 0.328000009059906,0.1770000010728836 0.6489999890327454,0.25099998712539673 c0.20800000429153442,0.04800000041723251 0.40799999237060547,0.09300000220537186 0.6000000238418579,0.13699999451637268 c0.19200000166893005,0.04500000178813934 0.39800000190734863,0.10599999874830246 0.6159999966621399,0.18299999833106995 c0.42899999022483826,0.1550000011920929 0.7480000257492065,0.3630000054836273 0.9570000171661377,0.625 c0.20900000631809235,0.26100000739097595 0.31299999356269836,0.6060000061988831 0.31299999356269836,1.034999966621399 c0,0.6140000224113464 -0.2409999966621399,1.1080000400543213 -0.7239999771118164,1.4819999933242798 c-0.4830000102519989,0.37299999594688416 -1.1349999904632568,0.5600000023841858 -1.9570000171661377,0.5600000023841858 z" style="fill:#504e53;fill-rule:nonzero;" id="svg_8"/></g><path d="M4.871002197265625,30 l17.280000686645508,-30 l17.520000457763672,30 l-10.319999694824219,0 l-2.4000000953674316,-4.320000171661377 l5.039999961853027,0 l-9.84000015258789,-16.799999237060547 l-9.84000015258789,16.799999237060547 l5.28000020980835,0 l4.559999942779541,-7.920000076293945 l2.640000104904175,4.559999942779541 l-4.559999942779541,7.679999828338623 l-15.359999656677246,0 z" style="fill:#f08400;" id="svg_9" class=""/></g></svg>